# xmcd
#
# Track frame offsets: 
#        150
#        20753
#        48785
#        65054
#        94597
#        121765
#        145866
#        169265
#        187146
#        203529
#        215142
#        232623
#
# Disc length: 3283 seconds
#
# Revision: 0
# Processed by: cddbd v1.5.2PL0 Copyright (c) Steve Scherf et al.
# Submitted via: ExactAudioCopyFreeDBPlugin 1.0
#
DISCID=a60cd10c
DTITLE=Guy Forsyth Band, The - The Pleaser
DYEAR=2014
DGENRE=Blues
TTITLE0=Good Stuff
TTITLE1=Play To Loose
TTITLE2=Carried By Six (Pop's Blues)
TTITLE3=Put A Little Sex In It
TTITLE4=Miniskirt
TTITLE5=Mechanic
TTITLE6=Nobody Gonna Bail Me Out
TTITLE7=Mechanic
TTITLE8=Poverty Line
TTITLE9=Nobody Taught Me How To Love
TTITLE10=Jitterbug Adios
TTITLE11=Time To Move
EXTD=
EXTT0=
EXTT1=
EXTT2=
EXTT3=
EXTT4=
EXTT5=
EXTT6=
EXTT7=
EXTT8=
EXTT9=
EXTT10=
EXTT11=
PLAYORDER=
